  0
SECTION
  2
HEADER
  9
$ACADVER
  1
AC1009
  9
$FILLMODE
 70
0
  9
$EXTMIN
 10
-70.0000
 20
-3.4546
 30
0.0000
  9
$EXTMAX
 10
70.1227
 20
19.7010
 30
0.0000
  0
ENDSEC
  0
SECTION
  2
TABLES
  0
TABLE
  2
LTYPE
 70
1
  0
LTYPE
  2
CONTINUOUS
 70
64
  3
Solid line
 72
65
 73
0
 40
0
  0
ENDTAB
  0
TABLE
  2
LAYER
 70
255
  0
LAYER
  2
17
 70
64
 62
110
  6
CONTINUOUS
  0
LAYER
  2
20
 70
64
 62
31
  6
CONTINUOUS
  0
LAYER
  2
45
 70
64
 62
253
  6
CONTINUOUS
  0
LAYER
  2
46
 70
64
 62
140
  6
CONTINUOUS
  0
ENDTAB
  0
ENDSEC
  0
SECTION
  2
BLOCKS
  0
BLOCK
  8
0
  2
RECT
 70
64
 10
0.0000
 20
0.0000
 30
0.0000
  3
RECT
  0
SOLID
  8
0
 10
-0.5000
 20
-0.5000
 30
0.0000
 11
0.5000
 21
-0.5000
 31
0.0000
 12
-0.5000
 22
0.5000
 32
0.0000
 13
0.5000
 23
0.5000
 33
0.0000
  0
ENDBLK
  8
0
  0
BLOCK
  8
0
  2
PIE
 70
64
 10
0.0000
 20
0.0000
 30
0.0000
  3
PIE
  0
CIRCLE
  8
0
 10
0.0000
 20
0.0000
 30
0.0000
 40
0.5000
  0
ENDBLK
  8
0
  0
BLOCK
  8
0
  2
OCTAGONP
 70
64
 10
0.0000
 20
0.0000
 30
0.0000
  3
OCTAGONP
  0
POLYLINE
  8
0
 66
1
 10
0.0000
 20
0.0000
 30
0.0000
 40
0.0000
 41
0.0000
 70
1
  0
VERTEX
  8
0
 10
-0.5000
 20
-0.2071
 30
0.0000
  0
VERTEX
  8
0
 10
-0.5000
 20
0.2071
 30
0.0000
  0
VERTEX
  8
0
 10
-0.2071
 20
0.5000
 30
0.0000
  0
VERTEX
  8
0
 10
0.2071
 20
0.5000
 30
0.0000
  0
VERTEX
  8
0
 10
0.5000
 20
0.2071
 30
0.0000
  0
VERTEX
  8
0
 10
0.5000
 20
-0.2071
 30
0.0000
  0
VERTEX
  8
0
 10
0.2071
 20
-0.5000
 30
0.0000
  0
VERTEX
  8
0
 10
-0.2071
 20
-0.5000
 30
0.0000
  0
SEQEND
  8
0
  0
ENDBLK
  8
0
  0
BLOCK
  8
0
  2
SQUAREP
 70
64
 10
0.0000
 20
0.0000
 30
0.0000
  3
SQUAREP
  0
SOLID
  8
0
 10
-0.5000
 20
-0.5000
 30
0.0000
 11
0.5000
 21
-0.5000
 31
0.0000
 12
-0.5000
 22
0.5000
 32
0.0000
 13
0.5000
 23
0.5000
 33
0.0000
  0
ENDBLK
  8
0
  0
BLOCK
  8
0
  2
ROUNDP
 70
64
 10
0.0000
 20
0.0000
 30
0.0000
  3
ROUNDP
  0
CIRCLE
  8
0
 10
0.0000
 20
0.0000
 30
0.0000
 40
0.5000
  0
ENDBLK
  8
0
  0
BLOCK
  8
0
  2
ANNULUSP
 70
64
 10
0.0000
 20
0.0000
 30
0.0000
  3
ANNULUSP
  0
CIRCLE
  8
0
 10
0.0000
 20
0.0000
 30
0.0000
 40
0.5000
  0
ENDBLK
  8
0
  0
BLOCK
  8
0
  2
THERMALP
 70
64
 10
0.0000
 20
0.0000
 30
0.0000
  3
THERMALP
  0
LINE
  8
0
 10
-0.2379
 20
0.4500
 30
0.0000
 11
0.2379
 21
0.4500
 31
0.0000
  0
LINE
  8
0
 10
0.4500
 20
0.2379
 30
0.0000
 11
0.4500
 21
-0.2379
 31
0.0000
  0
LINE
  8
0
 10
0.2379
 20
-0.4500
 30
0.0000
 11
-0.2379
 21
-0.4500
 31
0.0000
  0
LINE
  8
0
 10
-0.4500
 20
-0.2379
 30
0.0000
 11
-0.4500
 21
0.2379
 31
0.0000
  0
ENDBLK
  8
0
  0
BLOCK
  8
0
  2
OCTAGONV
 70
64
 10
0.0000
 20
0.0000
 30
0.0000
  3
OCTAGONV
  0
POLYLINE
  8
0
 66
1
 10
0.0000
 20
0.0000
 30
0.0000
 40
0.0000
 41
0.0000
 70
1
  0
VERTEX
  8
0
 10
-0.5000
 20
-0.2071
 30
0.0000
  0
VERTEX
  8
0
 10
-0.5000
 20
0.2071
 30
0.0000
  0
VERTEX
  8
0
 10
-0.2071
 20
0.5000
 30
0.0000
  0
VERTEX
  8
0
 10
0.2071
 20
0.5000
 30
0.0000
  0
VERTEX
  8
0
 10
0.5000
 20
0.2071
 30
0.0000
  0
VERTEX
  8
0
 10
0.5000
 20
-0.2071
 30
0.0000
  0
VERTEX
  8
0
 10
0.2071
 20
-0.5000
 30
0.0000
  0
VERTEX
  8
0
 10
-0.2071
 20
-0.5000
 30
0.0000
  0
SEQEND
  8
0
  0
ENDBLK
  8
0
  0
BLOCK
  8
0
  2
SQUAREV
 70
64
 10
0.0000
 20
0.0000
 30
0.0000
  3
SQUAREV
  0
SOLID
  8
0
 10
-0.5000
 20
-0.5000
 30
0.0000
 11
0.5000
 21
-0.5000
 31
0.0000
 12
-0.5000
 22
0.5000
 32
0.0000
 13
0.5000
 23
0.5000
 33
0.0000
  0
ENDBLK
  8
0
  0
BLOCK
  8
0
  2
ROUNDV
 70
64
 10
0.0000
 20
0.0000
 30
0.0000
  3
ROUNDV
  0
CIRCLE
  8
0
 10
0.0000
 20
0.0000
 30
0.0000
 40
0.5000
  0
ENDBLK
  8
0
  0
BLOCK
  8
0
  2
ANNULUSV
 70
64
 10
0.0000
 20
0.0000
 30
0.0000
  3
ANNULUSV
  0
CIRCLE
  8
0
 10
0.0000
 20
0.0000
 30
0.0000
 40
0.5000
  0
ENDBLK
  8
0
  0
BLOCK
  8
0
  2
THERMALV
 70
64
 10
0.0000
 20
0.0000
 30
0.0000
  3
THERMALV
  0
LINE
  8
0
 10
-0.2379
 20
0.4500
 30
0.0000
 11
0.2379
 21
0.4500
 31
0.0000
  0
LINE
  8
0
 10
0.4500
 20
0.2379
 30
0.0000
 11
0.4500
 21
-0.2379
 31
0.0000
  0
LINE
  8
0
 10
0.2379
 20
-0.4500
 30
0.0000
 11
-0.2379
 21
-0.4500
 31
0.0000
  0
LINE
  8
0
 10
-0.4500
 20
-0.2379
 30
0.0000
 11
-0.4500
 21
0.2379
 31
0.0000
  0
ENDBLK
  8
0
  0
ENDSEC
  0
SECTION
  2
ENTITIES
  0
LINE
  8
20
 10
60.0000
 20
5.0000
 30
0.0000
 11
67.5000
 21
5.0000
 31
0.0000
  0
ARC
  8
20
 10
67.5000
 20
7.5000
 30
0.0000
 40
2.5000
 50
270.0000
 51
0.0000
  0
LINE
  8
20
 10
70.0000
 20
7.5000
 30
0.0000
 11
70.0000
 21
16.5000
 31
0.0000
  0
ARC
  8
20
 10
67.5000
 20
16.5000
 30
0.0000
 40
2.5000
 50
0.0000
 51
90.0000
  0
LINE
  8
20
 10
67.5000
 20
19.0000
 30
0.0000
 11
3.5000
 21
19.0000
 31
0.0000
  0
LINE
  8
20
 10
-70.0000
 20
16.5000
 30
0.0000
 11
-70.0000
 21
7.5000
 31
0.0000
  0
ARC
  8
20
 10
-67.5000
 20
7.5000
 30
0.0000
 40
2.5000
 50
180.0000
 51
270.0000
  0
LINE
  8
20
 10
-67.5000
 20
5.0000
 30
0.0000
 11
-60.0000
 21
5.0000
 31
0.0000
  0
ARC
  8
20
 10
-67.5000
 20
16.5000
 30
0.0000
 40
2.5000
 50
90.0000
 51
180.0000
  0
LINE
  8
20
 10
-67.5000
 20
19.0000
 30
0.0000
 11
-3.5000
 21
19.0000
 31
0.0000
  0
LINE
  8
20
 10
-60.0000
 20
5.0000
 30
0.0000
 11
-60.0000
 21
2.5000
 31
0.0000
  0
ARC
  8
20
 10
-57.5000
 20
2.5000
 30
0.0000
 40
2.5000
 50
180.0000
 51
270.0000
  0
LINE
  8
20
 10
-57.5000
 20
0.0000
 30
0.0000
 11
57.5000
 21
0.0000
 31
0.0000
  0
ARC
  8
20
 10
57.5000
 20
2.5000
 30
0.0000
 40
2.5000
 50
270.0000
 51
0.0000
  0
LINE
  8
20
 10
60.0000
 20
2.5000
 30
0.0000
 11
60.0000
 21
5.0000
 31
0.0000
  0
LINE
  8
20
 10
-3.5000
 20
19.0000
 30
0.0000
 11
-1.0000
 21
16.5000
 31
0.0000
  0
LINE
  8
20
 10
-1.0000
 20
16.5000
 30
0.0000
 11
1.0000
 21
16.5000
 31
0.0000
  0
LINE
  8
20
 10
1.0000
 20
16.5000
 30
0.0000
 11
3.5000
 21
19.0000
 31
0.0000
  0
INSERT
  8
17
  2
ROUNDP
 10
56.0850
 20
11.8200
 30
0.0000
 41
1.5000
 42
1.5000
 43
1.0000
 50
0.0000
  0
INSERT
  8
17
  2
ROUNDP
 10
56.0850
 20
11.8200
 30
0.0000
 41
1.5000
 42
1.5000
 43
1.0000
 50
0.0000
  0
INSERT
  8
17
  2
ROUNDP
 10
58.8150
 20
11.8200
 30
0.0000
 41
1.5000
 42
1.5000
 43
1.0000
 50
0.0000
  0
INSERT
  8
17
  2
ROUNDP
 10
58.8150
 20
11.8200
 30
0.0000
 41
1.5000
 42
1.5000
 43
1.0000
 50
0.0000
  0
INSERT
  8
17
  2
ROUNDP
 10
59.2000
 20
9.7600
 30
0.0000
 41
1.5000
 42
1.5000
 43
1.0000
 50
0.0000
  0
INSERT
  8
17
  2
ROUNDP
 10
59.2000
 20
9.7600
 30
0.0000
 41
1.5000
 42
1.5000
 43
1.0000
 50
0.0000
  0
INSERT
  8
17
  2
ROUNDP
 10
57.4500
 20
8.6000
 30
0.0000
 41
1.5000
 42
1.5000
 43
1.0000
 50
0.0000
  0
INSERT
  8
17
  2
ROUNDP
 10
57.4500
 20
8.6000
 30
0.0000
 41
1.5000
 42
1.5000
 43
1.0000
 50
0.0000
  0
INSERT
  8
17
  2
ROUNDP
 10
55.7000
 20
9.7600
 30
0.0000
 41
1.5000
 42
1.5000
 43
1.0000
 50
0.0000
  0
INSERT
  8
17
  2
ROUNDP
 10
55.7000
 20
9.7600
 30
0.0000
 41
1.5000
 42
1.5000
 43
1.0000
 50
0.0000
  0
INSERT
  8
17
  2
ROUNDP
 10
57.4500
 20
10.5000
 30
0.0000
 41
1.5000
 42
1.5000
 43
1.0000
 50
0.0000
  0
INSERT
  8
17
  2
ROUNDP
 10
57.4500
 20
10.5000
 30
0.0000
 41
1.5000
 42
1.5000
 43
1.0000
 50
0.0000
  0
INSERT
  8
17
  2
ROUNDP
 10
51.2000
 20
10.5000
 30
0.0000
 41
4.0160
 42
4.0160
 43
1.0000
 50
0.0000
  0
INSERT
  8
17
  2
ROUNDP
 10
51.2000
 20
10.5000
 30
0.0000
 41
4.0160
 42
4.0160
 43
1.0000
 50
0.0000
  0
INSERT
  8
17
  2
ROUNDP
 10
63.7000
 20
10.5000
 30
0.0000
 41
4.0160
 42
4.0160
 43
1.0000
 50
0.0000
  0
INSERT
  8
17
  2
ROUNDP
 10
63.7000
 20
10.5000
 30
0.0000
 41
4.0160
 42
4.0160
 43
1.0000
 50
0.0000
  0
INSERT
  8
17
  2
ROUNDP
 10
-55.7000
 20
10.5000
 30
0.0000
 41
1.9500
 42
1.9500
 43
1.0000
 50
0.0000
  0
INSERT
  8
17
  2
ROUNDP
 10
-55.7000
 20
10.5000
 30
0.0000
 41
1.9500
 42
1.9500
 43
1.0000
 50
0.0000
  0
INSERT
  8
17
  2
ROUNDP
 10
-59.2000
 20
10.5000
 30
0.0000
 41
1.9500
 42
1.9500
 43
1.0000
 50
0.0000
  0
INSERT
  8
17
  2
ROUNDP
 10
-59.2000
 20
10.5000
 30
0.0000
 41
1.9500
 42
1.9500
 43
1.0000
 50
0.0000
  0
INSERT
  8
17
  2
ROUNDP
 10
-57.4500
 20
8.7500
 30
0.0000
 41
1.9500
 42
1.9500
 43
1.0000
 50
0.0000
  0
INSERT
  8
17
  2
ROUNDP
 10
-57.4500
 20
8.7500
 30
0.0000
 41
1.9500
 42
1.9500
 43
1.0000
 50
0.0000
  0
INSERT
  8
17
  2
ROUNDP
 10
-63.7000
 20
10.5000
 30
0.0000
 41
4.0160
 42
4.0160
 43
1.0000
 50
0.0000
  0
INSERT
  8
17
  2
ROUNDP
 10
-63.7000
 20
10.5000
 30
0.0000
 41
4.0160
 42
4.0160
 43
1.0000
 50
0.0000
  0
INSERT
  8
17
  2
ROUNDP
 10
-51.2000
 20
10.5000
 30
0.0000
 41
4.0160
 42
4.0160
 43
1.0000
 50
0.0000
  0
INSERT
  8
17
  2
ROUNDP
 10
-51.2000
 20
10.5000
 30
0.0000
 41
4.0160
 42
4.0160
 43
1.0000
 50
0.0000
  0
INSERT
  8
17
  2
ROUNDP
 10
-22.4874
 20
7.7626
 30
0.0000
 41
1.9500
 42
1.9500
 43
1.0000
 50
225.0000
  0
INSERT
  8
17
  2
ROUNDP
 10
-22.4874
 20
7.7626
 30
0.0000
 41
1.9500
 42
1.9500
 43
1.0000
 50
225.0000
  0
INSERT
  8
17
  2
ROUNDP
 10
-20.0126
 20
10.2374
 30
0.0000
 41
1.9500
 42
1.9500
 43
1.0000
 50
225.0000
  0
INSERT
  8
17
  2
ROUNDP
 10
-20.0126
 20
10.2374
 30
0.0000
 41
1.9500
 42
1.9500
 43
1.0000
 50
225.0000
  0
INSERT
  8
17
  2
ROUNDP
 10
-22.4874
 20
10.2374
 30
0.0000
 41
1.9500
 42
1.9500
 43
1.0000
 50
225.0000
  0
INSERT
  8
17
  2
ROUNDP
 10
-22.4874
 20
10.2374
 30
0.0000
 41
1.9500
 42
1.9500
 43
1.0000
 50
225.0000
  0
INSERT
  8
17
  2
ROUNDP
 10
-16.8306
 20
13.4194
 30
0.0000
 41
4.0160
 42
4.0160
 43
1.0000
 50
225.0000
  0
INSERT
  8
17
  2
ROUNDP
 10
-16.8306
 20
13.4194
 30
0.0000
 41
4.0160
 42
4.0160
 43
1.0000
 50
225.0000
  0
INSERT
  8
17
  2
ROUNDP
 10
-25.6694
 20
4.5806
 30
0.0000
 41
4.0160
 42
4.0160
 43
1.0000
 50
225.0000
  0
INSERT
  8
17
  2
ROUNDP
 10
-25.6694
 20
4.5806
 30
0.0000
 41
4.0160
 42
4.0160
 43
1.0000
 50
225.0000
  0
INSERT
  8
17
  2
ROUNDP
 10
20.0126
 20
7.7626
 30
0.0000
 41
1.9500
 42
1.9500
 43
1.0000
 50
225.0000
  0
INSERT
  8
17
  2
ROUNDP
 10
20.0126
 20
7.7626
 30
0.0000
 41
1.9500
 42
1.9500
 43
1.0000
 50
225.0000
  0
INSERT
  8
17
  2
ROUNDP
 10
22.4874
 20
10.2374
 30
0.0000
 41
1.9500
 42
1.9500
 43
1.0000
 50
225.0000
  0
INSERT
  8
17
  2
ROUNDP
 10
22.4874
 20
10.2374
 30
0.0000
 41
1.9500
 42
1.9500
 43
1.0000
 50
225.0000
  0
INSERT
  8
17
  2
ROUNDP
 10
20.0126
 20
10.2374
 30
0.0000
 41
1.9500
 42
1.9500
 43
1.0000
 50
225.0000
  0
INSERT
  8
17
  2
ROUNDP
 10
20.0126
 20
10.2374
 30
0.0000
 41
1.9500
 42
1.9500
 43
1.0000
 50
225.0000
  0
INSERT
  8
17
  2
ROUNDP
 10
25.6694
 20
13.4194
 30
0.0000
 41
4.0160
 42
4.0160
 43
1.0000
 50
225.0000
  0
INSERT
  8
17
  2
ROUNDP
 10
25.6694
 20
13.4194
 30
0.0000
 41
4.0160
 42
4.0160
 43
1.0000
 50
225.0000
  0
INSERT
  8
17
  2
ROUNDP
 10
16.8306
 20
4.5806
 30
0.0000
 41
4.0160
 42
4.0160
 43
1.0000
 50
225.0000
  0
INSERT
  8
17
  2
ROUNDP
 10
16.8306
 20
4.5806
 30
0.0000
 41
4.0160
 42
4.0160
 43
1.0000
 50
225.0000
  0
CIRCLE
  8
20
 10
0.0000
 20
3.8100
 30
0.0000
 40
0.5500
  0
CIRCLE
  8
20
 10
0.0000
 20
1.3100
 30
0.0000
 40
0.5500
  0
CIRCLE
  8
20
 10
-2.2000
 20
1.3100
 30
0.0000
 40
0.5500
  0
ENDSEC
  0
EOF
